<svg width="25" height="24" viewBox="0 0 25 24" fill="none" xmlns="http://www.w3.org/2000/svg">
<path fill-rule="evenodd" clip-rule="evenodd" d="M16.5 7C16.5 9.20914 14.7091 11 12.5 11C10.2909 11 8.5 9.20914 8.5 7C8.5 4.79086 10.2909 3 12.5 3C14.7091 3 16.5 4.79086 16.5 7ZM14.5 7C14.5 8.10457 13.6046 9 12.5 9C11.3954 9 10.5 8.10457 10.5 7C10.5 5.89543 11.3954 5 12.5 5C13.6046 5 14.5 5.89543 14.5 7Z" fill="#D7DCDF"/>
<path d="M16.5 15C16.5 14.4477 16.0523 14 15.5 14H9.5C8.94772 14 8.5 14.4477 8.5 15V21H6.5V15C6.5 13.3431 7.84315 12 9.5 12H15.5C17.1569 12 18.5 13.3431 18.5 15V21H16.5V15Z" fill="#D7DCDF"/>
</svg>
