<svg width="25" height="24" viewBox="0 0 25 24" fill="none" xmlns="http://www.w3.org/2000/svg">
<path fill-rule="evenodd" clip-rule="evenodd" d="M4.99878 2.86621C4.55695 2.86621 4.19878 3.22438 4.19878 3.66621C4.19878 4.10804 4.55695 4.46621 4.99878 4.46621H19.999C20.4409 4.46621 20.799 4.10804 20.799 3.66621C20.799 3.22438 20.4409 2.86621 19.999 2.86621H4.99878ZM2.53271 6.99958C2.53271 6.55775 2.89089 6.19958 3.33271 6.19958H21.6664C22.1082 6.19958 22.4664 6.55775 22.4664 6.99958V20.3332C22.4664 20.775 22.1082 21.1332 21.6664 21.1332H3.33271C2.89089 21.1332 2.53271 20.775 2.53271 20.3332V6.99958ZM4.13271 7.79958V19.5331H20.8664V7.79958H4.13271ZM12.499 11.9664C11.5601 11.9664 10.799 12.7275 10.799 13.6664C10.799 14.6053 11.5601 15.3664 12.499 15.3664C13.4379 15.3664 14.199 14.6053 14.199 13.6664C14.199 12.7275 13.4379 11.9664 12.499 11.9664ZM9.19896 13.6664C9.19896 11.8438 10.6764 10.3664 12.499 10.3664C14.3216 10.3664 15.799 11.8438 15.799 13.6664C15.799 15.489 14.3216 16.9664 12.499 16.9664C10.6764 16.9664 9.19896 15.489 9.19896 13.6664Z" fill="#D7DCDF"/>
</svg>
