<svg width="82" height="20" viewBox="0 0 82 20" fill="none" xmlns="http://www.w3.org/2000/svg">
<g clip-path="url(#clip0_1747_38274)">
<path d="M22.7814 0.0013653C17.9749 0.0013653 15.8071 3.57131 15.8071 3.57131C15.8071 3.57131 14.0749 -0.0420847 8.69299 0.0013653C3.11377 0.0459897 1.14795 3.93418 1.14795 8.69137V13.1468C1.74756 12.8074 2.42479 12.629 3.11377 12.6289C3.94384 12.6273 4.75565 12.8725 5.44598 13.3335V8.507C5.44598 5.62638 6.77297 3.97998 9.2414 3.97998C12.0316 3.97998 13.8154 6.22059 13.8154 6.22059V17.8828C13.8227 18.111 13.9166 18.3278 14.0781 18.4892C14.2395 18.6506 14.4563 18.7445 14.6844 18.7518H16.79C17.018 18.7442 17.2346 18.6502 17.396 18.4889C17.5573 18.3275 17.6513 18.1109 17.659 17.8828V6.22059C17.659 6.22059 19.4428 3.97998 22.2318 3.97998C24.6979 3.97998 26.0284 5.62403 26.0284 8.507V17.8828C26.0282 17.997 26.0506 18.1101 26.0942 18.2156C26.1378 18.3211 26.2018 18.4169 26.2826 18.4976C26.3633 18.5784 26.4591 18.6424 26.5646 18.686C26.6701 18.7296 26.7832 18.752 26.8974 18.7518H29.4574C29.5716 18.752 29.6846 18.7296 29.7901 18.686C29.8956 18.6424 29.9915 18.5784 30.0722 18.4976C30.153 18.4169 30.217 18.3211 30.2606 18.2156C30.3042 18.1101 30.3266 17.997 30.3264 17.8828V8.6902C30.3264 3.93418 28.3606 0.0013653 22.7814 0.0013653Z" fill="#0A2240"/>
<path d="M3.14915 19.1499C4.47416 19.1499 5.54829 18.0757 5.54829 16.7507C5.54829 15.4257 4.47416 14.3516 3.14915 14.3516C1.82413 14.3516 0.75 15.4257 0.75 16.7507C0.75 18.0757 1.82413 19.1499 3.14915 19.1499Z" fill="#0A2240"/>
<path d="M43.9098 0.000976562C49.0322 0.000976562 53.1482 4.3906 53.1482 9.55881C53.1482 14.8186 49.0322 19.2094 43.9098 19.2094C38.7874 19.2094 34.6714 14.8186 34.6714 9.55881C34.6714 4.3906 38.7874 0.000976562 43.9098 0.000976562ZM43.9098 15.2754C46.7904 15.2754 49.0768 12.7142 49.0768 9.55881C49.0768 6.495 46.7893 3.97959 43.9098 3.97959C41.0304 3.97959 38.7428 6.495 38.7428 9.55881C38.7416 12.7142 41.0292 15.2754 43.9098 15.2754Z" fill="#0A2240"/>
<path d="M55.2518 1.51054C54.977 0.916336 55.2518 0.453652 55.9388 0.453652H58.6397C58.8118 0.443354 58.983 0.486145 59.13 0.576242C59.277 0.66634 59.3928 0.7994 59.4617 0.957438L64.2178 11.7507H64.2636L69.2004 0.962135C69.4353 0.45835 69.932 0.458349 70.4358 0.458349H72.539C73.226 0.458349 73.4996 0.916336 73.226 1.51524L65.1302 18.752C65.0398 18.9869 64.765 19.21 64.3528 19.21H64.125C63.9645 19.2191 63.8049 19.1804 63.6663 19.0989C63.5278 19.0174 63.4164 18.8967 63.3464 18.752L55.2518 1.51054Z" fill="#0A2240"/>
<path d="M78.8135 6.84858C78.0669 6.84967 77.3348 6.64224 76.6997 6.24968V17.818C76.6997 18.2078 77.1107 18.7515 77.5687 18.7515H80.1757C80.6325 18.7515 81.0447 18.2078 81.0447 17.818V6.2168C80.375 6.6327 79.6018 6.85165 78.8135 6.84858Z" fill="#0A2240"/>
<path d="M78.8508 5.08052C80.1758 5.08052 81.25 4.00639 81.25 2.68137C81.25 1.35636 80.1758 0.282227 78.8508 0.282227C77.5258 0.282227 76.4517 1.35636 76.4517 2.68137C76.4517 4.00639 77.5258 5.08052 78.8508 5.08052Z" fill="#0A2240"/>
</g>
<defs>
<clipPath id="clip0_1747_38274">
<rect width="80.5" height="19.2084" fill="white" transform="translate(0.75)"/>
</clipPath>
</defs>
</svg>
